<svg width="50" height="57" fill="none" xmlns="http://www.w3.org/2000/svg"><path d="M25.001 14.437c0-5.839 3.735-11.105 9.32-12.82 1.895-.582 3.887-.828 5.78-.402 5.648 1.273 8.817 6.898 8.898 22.41.084 15.582-5.525 25.278-10.86 31.749-1.556 1.908-7.233-6.362-8.513-12.544a4.477 4.477 0 0 1 1.05-3.856l.052-.06c.42-.48.991-.8 1.619-.905 2.02-.33 4.429.585 4.694-.343.66-2.31 1.59-4.865 1.35-4.964-1.332-.554-2.4-1.289-2.325-1.812.075-.523 1.115-.311 2.41-.622.915-.196.33-2.067.737-3.595.352-1.33 2.179-1.522 2.157-2.431 0-.573-4.943 0-7.417-13.073-.097-.517-7.725 1.441-8.952 9.44M25.001 26.965V14.437c0-5.839-3.735-11.105-9.322-12.82-1.896-.582-3.888-.828-5.777-.402C4.25 2.488 1.038 8.113 1 23.625.96 39.526 6.38 49.03 11.86 55.374c1.805 2.091 10.16-12.886 10.2-21.032 0-2.633-1.697-3.112-2.145-4.669-.756-2.624.106-5.32 1.628-5.444 1.214-.1 2.985 2.064 3.458 2.736Zm0 0a.075.075 0 0 1-.02.039c-.01.01.02-1.103.02-1.103" stroke="#4E4E4E" stroke-width="1.187" stroke-miterlimit="10"/><path d="M25.001 26.965V14.437c0-5.839-3.735-11.105-9.322-12.82-1.896-.582-3.888-.828-5.777-.402C4.25 2.488 1.038 8.113 1 23.625.96 39.526 6.38 49.03 11.86 55.374c1.805 2.091 10.16-12.886 10.2-21.032 0-2.633-1.697-3.112-2.145-4.669-.756-2.624.106-5.32 1.628-5.444 1.214-.1 2.985 2.064 3.458 2.736Zm0 0a.075.075 0 0 1-.02.039c-.01.01.02-1.103.02-1.103" stroke="#4E4E4E" stroke-width="1.187" stroke-miterlimit="10"/><path d="M25.123 13.762s-2.707-6.037-7.002-6.218C9.378 7.171 6.798 20.735 7.71 24.417c1.7 6.842 6.443 7.54 4.887 8.292-4.259 2.058-2.964 7.947.622 9.65 4.516 2.153 7.627-2.34 8.013-2.919" stroke="#4E4E4E" stroke-width="1.187" stroke-miterlimit="10"/></svg>